<svg xmlns="http://www.w3.org/2000/svg" xmlns:svg="http://www.w3.org/2000/svg" id="svg3207" width="700" height="132" version="1.1"><metadata id="metadata3212"/><g id="layer1" transform="translate(0,-920.36218)"><g style="display:inline" id="g3315" transform="matrix(1.3381806,0,0,1.3469268,-19.643557,-344.88934)"><path transform="matrix(0.70057808,0,0,0.69602891,64.18682,973.82769)" style="color:#000;fill:#1919bf;fill-opacity:1;fill-rule:nonzero;stroke:none;stroke-width:5;marker:none;visibility:visible;display:inline;overflow:visible;enable-background:accumulate" id="path5151" d="m 676,22 -40,69.282032 -562.666666,0 L 116,22 73.333334,-47.282032 l 562.666666,0 z"/><g transform="matrix(0.87433871,0,0,0.86866126,63.443376,127.21609)" style="font-size:35.75294876px;font-style:normal;font-variant:normal;font-weight:700;font-stretch:normal;line-height:85.00000238%;letter-spacing:4.4691186px;word-spacing:0;fill:#fff;fill-opacity:1;stroke:none;font-family:OCRABold;-inkscape-font-specification:OCRABold Bold" id="text3014"><g id="g3061" transform="matrix(1.043273,0,0,1.043273,-14.394889,-41.813143)"><text xml:space="preserve" style="font-size:63.31251526px;font-style:normal;font-variant:normal;font-weight:700;font-stretch:normal;line-height:125%;letter-spacing:-9.87811661px;word-spacing:0;fill:#fff;fill-opacity:1;stroke:none;font-family:OCRA;-inkscape-font-specification:OCRA Bold" id="text3031" x="106.132" y="1013.177"><tspan id="tspan3033" x="106.132" y="1013.177" dx="0 -1.988 -1.988 -1.932 5.32 -1.932 -4.704 -2.464 4.788 -4.788 -5.32 -7.981">SageMathCell</tspan></text></g></g><path style="color:#000;fill:#1919bf;fill-opacity:1;fill-rule:nonzero;stroke:none;stroke-width:3.93647933;marker:none;visibility:visible;display:inline;overflow:visible;enable-background:accumulate" id="path5149" d="m -150,-108 -25,43.30127 -50,0 -25,-43.30127 25,-43.30127 50,0 z" transform="matrix(1.1234783,0,0,1.1161831,298.09861,1109.7265)"/><g id="g5086" transform="matrix(0.49362665,0,0,0.50633838,-698.35649,-189.04746)"><path style="opacity:.98999999;fill:#fff;fill-opacity:1;stroke:none" id="path5088" d="m 1332.2546,1792.4095 c 0,4.0459 -3.2798,7.3257 -7.3256,7.3257 -4.0459,0 -7.3257,-3.2798 -7.3257,-7.3257 0,-4.0458 3.2798,-7.3256 7.3257,-7.3256 4.0458,0 7.3256,3.2798 7.3256,7.3256 z" transform="matrix(0.9672595,0,0,0.9672595,235.69886,548.04605)"/><path id="path5090" d="m 1332.2546,1792.4095 c 0,4.0459 -3.2798,7.3257 -7.3256,7.3257 -4.0459,0 -7.3257,-3.2798 -7.3257,-7.3257 0,-4.0458 3.2798,-7.3256 7.3257,-7.3256 4.0458,0 7.3256,3.2798 7.3256,7.3256 z" transform="matrix(0.9672595,0,0,0.9672595,308.74604,539.35166)" style="opacity:.98999999;fill:#fff;fill-opacity:1;stroke:none"/><path style="opacity:.98999999;fill:#fff;fill-opacity:1;stroke:none" id="path5092" d="m 1332.2546,1792.4095 c 0,4.0459 -3.2798,7.3257 -7.3256,7.3257 -4.0459,0 -7.3257,-3.2798 -7.3257,-7.3257 0,-4.0458 3.2798,-7.3256 7.3257,-7.3256 4.0458,0 7.3256,3.2798 7.3256,7.3256 z" transform="matrix(1.2053547,0,0,1.2053547,-25.196551,182.19849)"/><path style="opacity:.98999999;fill:#fff;fill-opacity:1;stroke:none" id="path5094" d="m 1332.2546,1792.4095 c 0,4.0459 -3.2798,7.3257 -7.3256,7.3257 -4.0459,0 -7.3257,-3.2798 -7.3257,-7.3257 0,-4.0458 3.2798,-7.3256 7.3257,-7.3256 4.0458,0 7.3256,3.2798 7.3256,7.3256 z" transform="matrix(0.7953719,0,0,0.7953719,449.34462,925.45441)"/><path id="path5096" d="m 1332.2546,1792.4095 c 0,4.0459 -3.2798,7.3257 -7.3256,7.3257 -4.0459,0 -7.3257,-3.2798 -7.3257,-7.3257 0,-4.0458 3.2798,-7.3256 7.3257,-7.3256 4.0458,0 7.3256,3.2798 7.3256,7.3256 z" transform="matrix(0.7953719,0,0,0.7953719,499.30379,973.24771)" style="opacity:.98999999;fill:#fff;fill-opacity:1;stroke:none"/><path style="opacity:.98999999;fill:#fff;fill-opacity:1;stroke:none" id="path5098" d="m 1332.2546,1792.4095 c 0,4.0459 -3.2798,7.3257 -7.3256,7.3257 -4.0459,0 -7.3257,-3.2798 -7.3257,-7.3257 0,-4.0458 3.2798,-7.3256 7.3257,-7.3256 4.0458,0 7.3256,3.2798 7.3256,7.3256 z" transform="matrix(0.7953719,0,0,0.7953719,556.29908,956.69427)"/><path id="path5100" d="m 1332.2546,1792.4095 c 0,4.0459 -3.2798,7.3257 -7.3256,7.3257 -4.0459,0 -7.3257,-3.2798 -7.3257,-7.3257 0,-4.0458 3.2798,-7.3256 7.3257,-7.3256 4.0458,0 7.3256,3.2798 7.3256,7.3256 z" transform="matrix(0.7953719,0,0,0.7953719,581.00221,902.90894)" style="opacity:.98999999;fill:#fff;fill-opacity:1;stroke:none"/><path style="opacity:.98999999;fill:#fff;fill-opacity:1;stroke:none" id="path5102" d="m 1332.2546,1792.4095 c 0,4.0459 -3.2798,7.3257 -7.3256,7.3257 -4.0459,0 -7.3257,-3.2798 -7.3257,-7.3257 0,-4.0458 3.2798,-7.3256 7.3257,-7.3256 4.0458,0 7.3256,3.2798 7.3256,7.3256 z" transform="matrix(0.6234843,0,0,0.6234843,800.65848,1180.6657)"/><path id="path5104" d="m 1332.2546,1792.4095 c 0,4.0459 -3.2798,7.3257 -7.3256,7.3257 -4.0459,0 -7.3257,-3.2798 -7.3257,-7.3257 0,-4.0458 3.2798,-7.3256 7.3257,-7.3256 4.0458,0 7.3256,3.2798 7.3256,7.3256 z" transform="matrix(0.6234843,0,0,0.6234843,766.33259,1139.9519)" style="opacity:.98999999;fill:#fff;fill-opacity:1;stroke:none"/><path style="opacity:.98999999;fill:#fff;fill-opacity:1;stroke:none" id="path5106" d="m 1332.2546,1792.4095 c 0,4.0459 -3.2798,7.3257 -7.3256,7.3257 -4.0459,0 -7.3257,-3.2798 -7.3257,-7.3257 0,-4.0458 3.2798,-7.3256 7.3257,-7.3256 4.0458,0 7.3256,3.2798 7.3256,7.3256 z" transform="matrix(0.6234843,0,0,0.6234843,664.75027,1230.1938)"/><path id="path5108" d="m 1332.2546,1792.4095 c 0,4.0459 -3.2798,7.3257 -7.3256,7.3257 -4.0459,0 -7.3257,-3.2798 -7.3257,-7.3257 0,-4.0458 3.2798,-7.3256 7.3257,-7.3256 4.0458,0 7.3256,3.2798 7.3256,7.3256 z" transform="matrix(0.6234843,0,0,0.6234843,701.58781,1267.5497)" style="opacity:.98999999;fill:#fff;fill-opacity:1;stroke:none"/><path id="path5110" d="m 1332.2546,1792.4095 c 0,4.0459 -3.2798,7.3257 -7.3256,7.3257 -4.0459,0 -7.3257,-3.2798 -7.3257,-7.3257 0,-4.0458 3.2798,-7.3256 7.3257,-7.3256 4.0458,0 7.3256,3.2798 7.3256,7.3256 z" transform="matrix(0.7953719,0,0,0.7953719,440.41431,869.81028)" style="opacity:.98999999;fill:#fff;fill-opacity:1;stroke:none"/><path style="opacity:.98999999;fill:#fff;fill-opacity:1;stroke:none" id="path5112" d="m 1332.2546,1792.4095 c 0,4.0459 -3.2798,7.3257 -7.3256,7.3257 -4.0459,0 -7.3257,-3.2798 -7.3257,-7.3257 0,-4.0458 3.2798,-7.3256 7.3257,-7.3256 4.0458,0 7.3256,3.2798 7.3256,7.3256 z" transform="matrix(0.7953719,0,0,0.7953719,484.50773,829.39633)"/><path style="opacity:.98999999;fill:#fff;fill-opacity:1;stroke:none" id="path5114" d="m 1332.2546,1792.4095 c 0,4.0459 -3.2798,7.3257 -7.3256,7.3257 -4.0459,0 -7.3257,-3.2798 -7.3257,-7.3257 0,-4.0458 3.2798,-7.3256 7.3257,-7.3256 4.0458,0 7.3256,3.2798 7.3256,7.3256 z" transform="matrix(0.6234843,0,0,0.6234843,699.00639,1196.6154)"/><path id="path5116" d="m 1332.2546,1792.4095 c 0,4.0459 -3.2798,7.3257 -7.3256,7.3257 -4.0459,0 -7.3257,-3.2798 -7.3257,-7.3257 0,-4.0458 3.2798,-7.3256 7.3257,-7.3256 4.0458,0 7.3256,3.2798 7.3256,7.3256 z" transform="matrix(0.6234843,0,0,0.6234843,749.0301,1256.3969)" style="opacity:.98999999;fill:#fff;fill-opacity:1;stroke:none"/><path style="fill:none;stroke:#fff;stroke-width:8;stroke-linecap:butt;stroke-linejoin:miter;stroke-miterlimit:4;stroke-opacity:1;stroke-dasharray:none" id="path5118" d="m 1590.0065,2271.6035 -18.6281,72.6731"/><path style="fill:none;stroke:#fff;stroke-width:8;stroke-linecap:butt;stroke-linejoin:miter;stroke-miterlimit:4;stroke-opacity:1;stroke-dasharray:none" id="path5120" d="m 1589.0995,2273.5223 -72.5588,8.4545"/><path style="fill:none;stroke:#fff;stroke-width:8;stroke-linecap:butt;stroke-linejoin:miter;stroke-miterlimit:4;stroke-opacity:1;stroke-dasharray:none" id="path5122" d="m 1571.3087,2343.4372 -54.6982,-61.8801"/><path style="fill:none;stroke:#fff;stroke-width:6;stroke-linecap:butt;stroke-linejoin:miter;stroke-miterlimit:4;stroke-opacity:1;stroke-dasharray:none" id="path5124" d="m 1571.3087,2343.8569 -18.07,55.944"/><path style="fill:none;stroke:#fff;stroke-width:4;stroke-linecap:butt;stroke-linejoin:miter;stroke-miterlimit:4;stroke-opacity:1;stroke-dasharray:none" id="path5126" d="m 1516.4012,2281.3172 21.0002,-24.3443"/><path style="fill:none;stroke:#fff;stroke-width:4;stroke-linecap:butt;stroke-linejoin:miter;stroke-miterlimit:4;stroke-opacity:1;stroke-dasharray:none" id="path5128" d="m 1493.9359,2295.4681 21.7676,-14.3307"/><path style="fill:none;stroke:#fff;stroke-width:4;stroke-linecap:butt;stroke-linejoin:miter;stroke-miterlimit:4;stroke-opacity:1;stroke-dasharray:none" id="path5130" d="m 1503.0057,2350.6326 13.3955,-69.9749"/><path style="fill:none;stroke:#fff;stroke-width:6;stroke-linecap:butt;stroke-linejoin:miter;stroke-miterlimit:4;stroke-opacity:1;stroke-dasharray:none" id="path5132" d="m 1552.1922,2398.5417 -49.5353,-46.59"/><path style="fill:none;stroke:#fff;stroke-width:6;stroke-linecap:butt;stroke-linejoin:miter;stroke-miterlimit:4;stroke-opacity:1;stroke-dasharray:none" id="path5134" d="m 1610.0997,2381.3328 -58.1168,16.969"/><path style="fill:none;stroke:#fff;stroke-width:6;stroke-linecap:butt;stroke-linejoin:miter;stroke-miterlimit:4;stroke-opacity:1;stroke-dasharray:none" id="path5136" d="m 1634.2395,2328.3869 -24.1398,53.1257"/><path style="fill:none;stroke:#fff;stroke-width:6;stroke-linecap:butt;stroke-linejoin:miter;stroke-miterlimit:4;stroke-opacity:1;stroke-dasharray:none" id="path5138" d="m 1570.5412,2343.4372 62.8611,-14.6306"/><path style="fill:none;stroke:#fff;stroke-width:6;stroke-linecap:butt;stroke-linejoin:miter;stroke-miterlimit:4;stroke-opacity:1;stroke-dasharray:none" id="path5140" d="m 1590.1461,2273.0426 43.1166,55.1644"/><path style="fill:none;stroke:#fff;stroke-width:6;stroke-linecap:butt;stroke-linejoin:miter;stroke-miterlimit:4;stroke-opacity:1;stroke-dasharray:none" id="path5142" d="m 1501.7987,2350.6326 66.9774,-7.1954"/><path style="fill:none;stroke:#fff;stroke-width:4;stroke-linecap:butt;stroke-linejoin:miter;stroke-miterlimit:4;stroke-opacity:1;stroke-dasharray:none" id="path5144" d="m 1551.4038,2398.062 -24.4188,-13.1316"/><path style="fill:none;stroke:#fff;stroke-width:4;stroke-linecap:butt;stroke-linejoin:miter;stroke-miterlimit:4;stroke-opacity:1;stroke-dasharray:none" id="path5146" d="m 1489.38,2347.2747 36.3492,37.296"/><path style="fill:none;stroke:#fff;stroke-width:4;stroke-linecap:butt;stroke-linejoin:miter;stroke-miterlimit:4;stroke-opacity:1;stroke-dasharray:none" id="path5148" d="m 1493.2173,2295.9478 -2.721,51.3269"/><path style="fill:none;stroke:#fff;stroke-width:4;stroke-linecap:butt;stroke-linejoin:miter;stroke-miterlimit:4;stroke-opacity:1;stroke-dasharray:none" id="path5150" d="m 1537.3805,2254.8743 54.0702,1.8588"/><path style="fill:none;stroke:#fff;stroke-width:4;stroke-linecap:butt;stroke-linejoin:miter;stroke-miterlimit:4;stroke-opacity:1;stroke-dasharray:none" id="path5152" d="m 1627.172,2298.5261 -34.2562,-41.9729"/><path style="fill:none;stroke:#fff;stroke-width:4;stroke-linecap:butt;stroke-linejoin:miter;stroke-miterlimit:4;stroke-opacity:1;stroke-dasharray:none" id="path5154" d="m 1635.4744,2328.207 -9.0001,-30.1006"/><path style="fill:none;stroke:#fff;stroke-width:4;stroke-linecap:butt;stroke-linejoin:miter;stroke-miterlimit:4;stroke-opacity:1;stroke-dasharray:none" id="path5156" d="m 1589.4972,2272.2631 3.2093,-15.2902"/><path style="fill:none;stroke:#fff;stroke-width:4;stroke-linecap:butt;stroke-linejoin:miter;stroke-miterlimit:4;stroke-opacity:1;stroke-dasharray:none" id="path5158" d="m 1503.6825,2351.2305 -14.1629,-2.6983"/><path style="fill:none;stroke:#fff;stroke-width:2;stroke-linecap:butt;stroke-linejoin:miter;stroke-miterlimit:4;stroke-opacity:1;stroke-dasharray:none" id="path5160" d="m 1526.985,2385.4084 46.7446,-11.4526"/><path style="fill:none;stroke:#fff;stroke-width:2;stroke-linecap:butt;stroke-linejoin:miter;stroke-miterlimit:4;stroke-opacity:1;stroke-dasharray:none" id="path5162" d="m 1574.9157,2373.8958 33.6282,7.2554"/><path style="fill:none;stroke:#fff;stroke-width:2;stroke-linecap:butt;stroke-linejoin:miter;stroke-miterlimit:4;stroke-opacity:1;stroke-dasharray:none" id="path5164" d="m 1492.5121,2295.941 61.203,-6.8478"/><path style="fill:none;stroke:#fff;stroke-width:2;stroke-linecap:butt;stroke-linejoin:miter;stroke-miterlimit:4;stroke-opacity:1;stroke-dasharray:none" id="path5166" d="m 1553.7151,2287.7387 36.4241,-13.5452"/><path style="opacity:.98999999;fill:#fff;fill-opacity:1;stroke:none" id="path5168" d="m 1332.2546,1792.4095 c 0,4.0459 -3.2798,7.3257 -7.3256,7.3257 -4.0459,0 -7.3257,-3.2798 -7.3257,-7.3257 0,-4.0458 3.2798,-7.3256 7.3257,-7.3256 4.0458,0 7.3256,3.2798 7.3256,7.3256 z" transform="matrix(0.6234843,0,0,0.6234843,726.86911,1170.9368)"/><path id="path5170" d="m 1332.2546,1792.4095 c 0,4.0459 -3.2798,7.3257 -7.3256,7.3257 -4.0459,0 -7.3257,-3.2798 -7.3257,-7.3257 0,-4.0458 3.2798,-7.3256 7.3257,-7.3256 4.0458,0 7.3256,3.2798 7.3256,7.3256 z" transform="matrix(0.5833906,0,0,0.5833906,837.2333,1298.2147)" style="opacity:.98999999;fill:#fff;fill-opacity:1;stroke:none"/><path style="fill:none;stroke:#fff;stroke-width:2;stroke-linecap:butt;stroke-linejoin:miter;stroke-miterlimit:4;stroke-opacity:1;stroke-dasharray:none" id="path5172" d="m 1609.6576,2343.739 16.404,-46.0639"/><path style="fill:none;stroke:#fff;stroke-width:2;stroke-linecap:butt;stroke-linejoin:miter;stroke-miterlimit:4;stroke-opacity:1;stroke-dasharray:none" id="path5174" d="m 1609.4298,2381.481 0.5696,-38.77"/><path id="path5176" d="m 1502.1919,2350.0723 23.4339,-35.9573" style="fill:none;stroke:#fff;stroke-width:2;stroke-linecap:butt;stroke-linejoin:miter;stroke-miterlimit:4;stroke-opacity:1;stroke-dasharray:none"/><path id="path5178" d="M 1537.8572,2255.3651 1524.94,2314.115" style="fill:none;stroke:#fff;stroke-width:2;stroke-linecap:butt;stroke-linejoin:miter;stroke-miterlimit:4;stroke-opacity:1;stroke-dasharray:none"/></g></g></g></svg>